<?xml version="1.0" encoding="utf-8"?>
<!-- Generator: Adobe Illustrator 19.2.1, SVG Export Plug-In . SVG Version: 6.00 Build 0)  -->
<svg version="1.1" id="Layer_1" xmlns="http://www.w3.org/2000/svg" xmlns:xlink="http://www.w3.org/1999/xlink" x="0px" y="0px"
	 viewBox="0 0 111.3 111.3" style="enable-background:new 0 0 111.3 111.3;" xml:space="preserve">
<style type="text/css">
	.st0{fill:none;stroke:#FC1037;stroke-width:4;stroke-miterlimit:10;}
	.st1{fill:#EFC167;}
	.st2{clip-path:url(#SVGID_2_);fill:#D6BD88;}
	.st3{fill:#852C42;}
	.st4{fill:#9B5166;}
	.st5{fill:#FFF2BB;}
	.st6{fill:#687C15;}
	.st7{fill:#5E6B13;}
	.st8{fill:#FFF54C;}
	.st9{fill:#F7E597;}
	.st10{fill:#7BAA49;}
	.st11{fill:#96D85B;}
	.st12{clip-path:url(#SVGID_4_);fill:#D6BD88;}
	.st13{fill:#CCE8F3;}
	.st14{fill:#054A5E;}
	.st15{fill:#96D0E2;}
	.st16{fill:#62B8DB;}
	.st17{clip-path:url(#SVGID_6_);fill:#D6BD88;}
	.st18{fill:#1E5C6E;}
	.st19{fill:#FFE669;}
	.st20{fill:#E8F4F9;}
	.st21{fill:none;stroke:#50818F;stroke-width:1.761;stroke-miterlimit:10;}
	.st22{fill:none;stroke:#914255;stroke-width:1.784;stroke-miterlimit:10;}
	.st23{clip-path:url(#SVGID_8_);fill:#D6BD88;}
	.st24{fill:#C3E3ED;}
	.st25{clip-path:url(#SVGID_10_);fill:#D6BD88;}
	.st26{fill:#376E7E;}
	.st27{fill:none;stroke:#EFC167;stroke-width:1.956;stroke-miterlimit:10;}
	.st28{clip-path:url(#SVGID_12_);fill:#D6BD88;}
	.st29{fill:#FFFA5F;}
	.st30{fill:none;stroke:#EFC167;stroke-width:1.118;stroke-miterlimit:10;}
	.st31{fill:#FDFFCA;}
	.st32{fill:#A0D4E9;}
	.st33{clip-path:url(#SVGID_14_);fill:#D6BD88;}
	.st34{fill:#04BBDF;}
	.st35{fill:#B3D335;}
	.st36{opacity:0.3;}
	.st37{clip-path:url(#SVGID_16_);fill:#FFFFFF;}
	.st38{clip-path:url(#SVGID_18_);fill:#D6BD88;}
	.st39{clip-path:url(#SVGID_20_);fill:#D6BD88;}
	.st40{clip-path:url(#SVGID_22_);fill:#D6BD88;}
	.st41{fill:#04BF00;}
	.st42{fill:#9D5668;}
	.st43{clip-path:url(#SVGID_24_);fill:#D6BD88;}
	.st44{fill:#F5DAA4;}
	.st45{clip-path:url(#SVGID_26_);fill:#D6BD88;}
	.st46{fill:#DAE8ED;}
	.st47{fill:#FFFFFF;}
	.st48{fill:none;stroke:#50818F;stroke-width:2.932;stroke-miterlimit:10;}
	.st49{fill:none;stroke:#50818F;stroke-width:2.153;stroke-miterlimit:10;}
	.st50{fill:#FF5200;}
	.st51{clip-path:url(#SVGID_28_);fill:#D6BD88;}
	.st52{fill:#FF6200;}
	.st53{clip-path:url(#SVGID_30_);fill:#D6BD88;}
	.st54{clip-path:url(#SVGID_32_);fill:#D6BD88;}
	.st55{fill:#EED9B5;}
	.st56{clip-path:url(#SVGID_34_);fill:#FFFFFF;}
	.st57{clip-path:url(#SVGID_34_);fill:#F5DAA4;}
	.st58{clip-path:url(#SVGID_34_);fill:#852C42;}
	.st59{clip-path:url(#SVGID_36_);fill:#D6BD88;}
	.st60{fill:#5ED65B;}
	.st61{fill:#FF4E22;}
	.st62{clip-path:url(#SVGID_38_);fill:#D6BD88;}
	.st63{fill:#FFC9BF;}
	.st64{fill:none;stroke:#FFC9BF;stroke-width:2.527;stroke-linecap:round;stroke-linejoin:round;stroke-miterlimit:10;}
	.st65{fill:none;stroke:#FFF1EB;stroke-width:2.527;stroke-miterlimit:10;}
	.st66{clip-path:url(#SVGID_40_);fill:#D6BD88;}
	.st67{fill:#FFEC9C;}
	.st68{fill:none;stroke:#FFFAE3;stroke-width:3;stroke-linecap:round;stroke-miterlimit:10;}
	.st69{fill:none;stroke:#FFFAE3;stroke-width:3;stroke-miterlimit:10;}
	.st70{fill:none;}
	.st71{clip-path:url(#SVGID_42_);fill:#D6BD88;}
	.st72{fill:#FFFAE3;}
	.st73{clip-path:url(#SVGID_44_);fill:#D6BD88;}
	.st74{fill:#FFFFD9;}
	.st75{fill:#997A59;}
	.st76{fill:#683300;}
	.st77{fill:#774E22;}
	.st78{fill:#FF0014;}
	.st79{clip-path:url(#SVGID_46_);fill:#D6BD88;}
	.st80{fill:#00B3DF;}
	.st81{fill:#1FD2FF;}
	.st82{fill:#1FE8FF;}
	.st83{fill:#344756;}
	.st84{fill:#F3C149;}
	.st85{fill:#FFBE4B;}
</style>
<path class="st1" d="M111.3,55.7c0,30.7-24.9,55.7-55.7,55.7C24.9,111.3,0,86.4,0,55.7C0,24.9,24.9,0,55.7,0
	C86.4,0,111.3,24.9,111.3,55.7"/>
<g>
	<g>
		<defs>
			<rect id="SVGID_21_" x="33.8" y="40.1" width="74.8" height="69.6"/>
		</defs>
		<clipPath id="SVGID_2_">
			<use xlink:href="#SVGID_21_"  style="overflow:visible;"/>
		</clipPath>
		<path class="st2" d="M69.3,109.7c18.6-4.7,33.5-18.7,39.4-36.8L75.8,40.1L59.1,74.1L41,56l-7.1,7.1l7.8,7.8L38,74.6l14,14
			l-1.2,2.5L69.3,109.7z"/>
	</g>
</g>
<path class="st3" d="M59.7,86.9c-0.2,3.4-2.8,6-5.8,5.9c-3-0.2-5.4-3-5.2-6.4c0.2-3.4,2.8-6,5.8-5.9C57.5,80.6,59.8,83.5,59.7,86.9"
	/>
<path class="st3" d="M68.4,64.3c-0.5,10.8-7.2,19.3-14.9,18.9c-7.7-0.4-13.5-9.4-13-20.3c0.5-10.8,7.2-19.3,14.9-18.9
	C63.1,44.5,68.9,53.5,68.4,64.3"/>
<path class="st3" d="M76.7,43.3c-0.1,2.3-1.9,4.2-4,4.1c-2.1-0.1-3.7-2.1-3.6-4.4c0.1-2.3,1.9-4.2,4-4C75.2,39,76.8,41,76.7,43.3"/>
<path class="st3" d="M80.9,53.1c-0.2,3.6-2.9,6.3-6.1,6.2c-3.2-0.2-5.6-3.2-5.4-6.7c0.2-3.6,2.9-6.3,6.1-6.2
	C78.7,46.6,81.1,49.6,80.9,53.1"/>
<path class="st41" d="M54.8,41.8c4.2-1.1,8.6-2.4,8.8-7.4c0.2-5.6-5.8-10.3-6.1-16c-0.2-3.5,4.5-5.8,7.4-4.2
	c1.1,0.6,1.9,1.8,2.5,2.8c1.3,2.1,1.7,4.9,1.1,7.2c-0.2,1-0.9,1.1-2.2,0.2c-0.1-2,1.1-3.1,3.5-3.3c1.5,0.3,3,1.5,4.2,2.5
	c2.4,1.9,4.5,4.5,6.2,7c0.3,0.5,2.1-0.3,1.9-0.5c-3.1-4.6-9.9-13.3-16.1-8.7c-1.9,1.4-2.4,5.6,1,5c2.1-0.4,3.7-1.6,3.8-4
	c0.4-6.8-5.9-12.8-12.3-8.3C47,22,73.3,36.2,54.6,41.2C53.5,41.5,53.7,42.1,54.8,41.8"/>
<path class="st42" d="M77.5,51.3c-0.2,3.1-2.5,5.5-5.3,5.4c-2.8-0.1-4.9-2.8-4.7-5.9c0.2-3.1,2.5-5.5,5.3-5.4
	C75.5,45.5,77.7,48.2,77.5,51.3"/>
<path class="st42" d="M77.9,60.8c-0.2,3.1-2.5,5.5-5.3,5.4c-2.8-0.1-4.9-2.8-4.7-5.9c0.2-3.1,2.5-5.5,5.3-5.4
	C76,55.1,78.1,57.7,77.9,60.8"/>
<path class="st42" d="M71.2,44.1c-0.1,2.3-1.9,4.2-4,4.1c-2.1-0.1-3.7-2.1-3.6-4.4c0.1-2.3,1.9-4.2,4-4.1
	C69.7,39.8,71.3,41.8,71.2,44.1"/>
<path class="st42" d="M71.8,72.9c-0.1,2.3-1.9,4.2-4,4.1c-2.1-0.1-3.7-2.1-3.6-4.4c0.1-2.3,1.9-4.2,4-4
	C70.3,68.6,71.9,70.5,71.8,72.9"/>
<path class="st3" d="M64.6,44.4c-0.2,3.7-3,6.5-6.3,6.4c-3.3-0.2-5.8-3.3-5.6-7c0.2-3.7,3-6.5,6.3-6.4
	C62.3,37.6,64.8,40.8,64.6,44.4"/>
<path class="st3" d="M42.7,47c-0.2,3.7-3,6.5-6.3,6.4c-3.3-0.2-5.8-3.3-5.6-7c0.2-3.7,3-6.5,6.3-6.4C40.4,40.2,42.9,43.3,42.7,47"/>
<path class="st42" d="M43.5,58.4c-0.2,3.7-3,6.5-6.3,6.4c-3.3-0.2-5.8-3.3-5.6-7c0.2-3.7,3-6.5,6.3-6.4
	C41.1,51.6,43.6,54.7,43.5,58.4"/>
<path class="st3" d="M47.6,69.9c-0.2,3.7-3,6.5-6.3,6.4c-3.3-0.2-5.8-3.3-5.6-7c0.2-3.7,3-6.5,6.3-6.4
	C45.2,63.1,47.7,66.2,47.6,69.9"/>
<path class="st3" d="M71.5,53.1c-0.2,3.7-3,6.5-6.3,6.4c-3.3-0.2-5.8-3.3-5.6-7c0.2-3.7,3-6.5,6.3-6.4
	C69.1,46.3,71.7,49.5,71.5,53.1"/>
<path class="st3" d="M75.2,64.1c-0.2,3.7-3,6.5-6.3,6.4c-3.3-0.2-5.8-3.3-5.6-7s3-6.5,6.3-6.4C72.8,57.3,75.3,60.4,75.2,64.1"/>
<path class="st3" d="M54.9,41.5c-0.2,3.7-3,6.5-6.3,6.4c-3.3-0.2-5.8-3.3-5.6-7c0.2-3.7,3-6.5,6.3-6.4
	C52.6,34.7,55.1,37.9,54.9,41.5"/>
<path class="st42" d="M50.2,50.5c-0.2,3.7-3,6.5-6.3,6.4c-3.3-0.2-5.8-3.3-5.6-7c0.2-3.7,3-6.5,6.3-6.4
	C47.9,43.7,50.4,46.8,50.2,50.5"/>
<path class="st3" d="M54.6,62.8c-0.2,3.7-3,6.5-6.3,6.4c-3.3-0.2-5.8-3.3-5.6-7c0.2-3.7,3-6.5,6.3-6.4C52.3,56,54.8,59.1,54.6,62.8"
	/>
<path class="st42" d="M55.4,76.6c-0.2,3.7-3,6.5-6.3,6.4c-3.3-0.2-5.8-3.3-5.6-7c0.2-3.7,3-6.5,6.3-6.4C53,69.8,55.6,72.9,55.4,76.6
	"/>
<path class="st42" d="M62,52c-0.2,3.7-3,6.5-6.3,6.4c-3.3-0.2-5.8-3.3-5.6-7c0.2-3.7,3-6.5,6.3-6.4C59.7,45.2,62.2,48.3,62,52"/>
<path class="st42" d="M66.4,64.6c-0.2,3.7-3,6.5-6.3,6.4c-3.3-0.2-5.8-3.3-5.6-7c0.2-3.7,3-6.5,6.3-6.4C64,57.8,66.5,60.9,66.4,64.6
	"/>
<path class="st3" d="M67.1,78c-0.2,3.7-3,6.5-6.3,6.4c-3.3-0.2-5.8-3.3-5.6-7c0.2-3.7,3-6.5,6.3-6.4C64.8,71.2,67.3,74.3,67.1,78"/>
<path class="st41" d="M56.7,19c0-1.5-1.1-2.6-2.3-3.3c-1.2-0.7-4.1-2.1-5.5-2.1c-0.9,1.8-1.2,3.3-0.2,4.4c-1.8-0.5-5.6-2-14.3,1.5
	c2.7,0.8,5.4,0.8,8.3,1.2C38,20.8,30.3,22.3,23,29.5c10,1.7,14.9-0.3,20.7-1.2C41.5,30,42,32.7,42,32.7c5.1-0.6,9.4-3.9,9.4-3.9
	s-1.2,2.2-0.8,3.9c4.8-1.5,6.1-4.2,8.8-5.9"/>
</svg>
