<?xml version="1.0" encoding="utf-8"?>
<!-- Generator: Adobe Illustrator 19.2.1, SVG Export Plug-In . SVG Version: 6.00 Build 0)  -->
<svg version="1.1" id="Layer_1" xmlns="http://www.w3.org/2000/svg" xmlns:xlink="http://www.w3.org/1999/xlink" x="0px" y="0px"
	 viewBox="0 0 111.3 111.3" style="enable-background:new 0 0 111.3 111.3;" xml:space="preserve">
<style type="text/css">
	.st0{fill:none;stroke:#FC1037;stroke-width:4;stroke-miterlimit:10;}
	.st1{fill:#EFC167;}
	.st2{clip-path:url(#SVGID_2_);fill:#D6BD88;}
	.st3{fill:#852C42;}
	.st4{fill:#9B5166;}
	.st5{fill:#FFF2BB;}
	.st6{fill:#687C15;}
	.st7{fill:#5E6B13;}
	.st8{fill:#FFF54C;}
	.st9{fill:#F7E597;}
	.st10{fill:#7BAA49;}
	.st11{fill:#96D85B;}
	.st12{clip-path:url(#SVGID_4_);fill:#D6BD88;}
	.st13{fill:#CCE8F3;}
	.st14{fill:#054A5E;}
	.st15{fill:#96D0E2;}
	.st16{fill:#62B8DB;}
	.st17{clip-path:url(#SVGID_6_);fill:#D6BD88;}
	.st18{fill:#1E5C6E;}
	.st19{fill:#FFE669;}
	.st20{fill:#E8F4F9;}
	.st21{fill:none;stroke:#50818F;stroke-width:1.761;stroke-miterlimit:10;}
	.st22{fill:none;stroke:#914255;stroke-width:1.784;stroke-miterlimit:10;}
	.st23{clip-path:url(#SVGID_8_);fill:#D6BD88;}
	.st24{fill:#C3E3ED;}
	.st25{clip-path:url(#SVGID_10_);fill:#D6BD88;}
	.st26{fill:#376E7E;}
	.st27{fill:none;stroke:#EFC167;stroke-width:1.956;stroke-miterlimit:10;}
	.st28{clip-path:url(#SVGID_12_);fill:#D6BD88;}
	.st29{fill:#FFFA5F;}
	.st30{fill:none;stroke:#EFC167;stroke-width:1.118;stroke-miterlimit:10;}
	.st31{fill:#FDFFCA;}
	.st32{fill:#A0D4E9;}
	.st33{clip-path:url(#SVGID_14_);fill:#D6BD88;}
	.st34{fill:#04BBDF;}
	.st35{fill:#B3D335;}
	.st36{opacity:0.3;}
	.st37{clip-path:url(#SVGID_16_);fill:#FFFFFF;}
	.st38{clip-path:url(#SVGID_18_);fill:#D6BD88;}
	.st39{clip-path:url(#SVGID_20_);fill:#D6BD88;}
	.st40{clip-path:url(#SVGID_22_);fill:#D6BD88;}
	.st41{fill:#04BF00;}
	.st42{fill:#9D5668;}
	.st43{clip-path:url(#SVGID_24_);fill:#D6BD88;}
	.st44{fill:#F5DAA4;}
	.st45{clip-path:url(#SVGID_26_);fill:#D6BD88;}
	.st46{fill:#DAE8ED;}
	.st47{fill:#FFFFFF;}
	.st48{fill:none;stroke:#50818F;stroke-width:2.932;stroke-miterlimit:10;}
	.st49{fill:none;stroke:#50818F;stroke-width:2.153;stroke-miterlimit:10;}
	.st50{fill:#FF5200;}
	.st51{clip-path:url(#SVGID_28_);fill:#D6BD88;}
	.st52{fill:#FF6200;}
	.st53{clip-path:url(#SVGID_30_);fill:#D6BD88;}
	.st54{clip-path:url(#SVGID_32_);fill:#D6BD88;}
	.st55{fill:#EED9B5;}
	.st56{clip-path:url(#SVGID_34_);fill:#FFFFFF;}
	.st57{clip-path:url(#SVGID_34_);fill:#F5DAA4;}
	.st58{clip-path:url(#SVGID_34_);fill:#852C42;}
	.st59{clip-path:url(#SVGID_36_);fill:#D6BD88;}
	.st60{fill:#5ED65B;}
	.st61{fill:#FF4E22;}
	.st62{clip-path:url(#SVGID_38_);fill:#D6BD88;}
	.st63{fill:#FFC9BF;}
	.st64{fill:none;stroke:#FFC9BF;stroke-width:2.527;stroke-linecap:round;stroke-linejoin:round;stroke-miterlimit:10;}
	.st65{fill:none;stroke:#FFF1EB;stroke-width:2.527;stroke-miterlimit:10;}
	.st66{clip-path:url(#SVGID_40_);fill:#D6BD88;}
	.st67{fill:#FFEC9C;}
	.st68{fill:none;stroke:#FFFAE3;stroke-width:3;stroke-linecap:round;stroke-miterlimit:10;}
	.st69{fill:none;stroke:#FFFAE3;stroke-width:3;stroke-miterlimit:10;}
	.st70{fill:none;}
	.st71{clip-path:url(#SVGID_42_);fill:#D6BD88;}
	.st72{fill:#FFFAE3;}
	.st73{clip-path:url(#SVGID_44_);fill:#D6BD88;}
	.st74{fill:#FFFFD9;}
	.st75{fill:#997A59;}
	.st76{fill:#683300;}
	.st77{fill:#774E22;}
	.st78{fill:#FF0014;}
	.st79{clip-path:url(#SVGID_46_);fill:#D6BD88;}
	.st80{fill:#00B3DF;}
	.st81{fill:#1FD2FF;}
	.st82{fill:#1FE8FF;}
	.st83{fill:#344756;}
	.st84{fill:#F3C149;}
	.st85{fill:#FFBE4B;}
</style>
<path class="st1" d="M111.3,55.7c0,30.7-24.9,55.7-55.7,55.7S0,86.4,0,55.7S24.9,0,55.7,0S111.3,24.9,111.3,55.7"/>
<g>
	<g>
		<defs>
			<rect id="SVGID_43_" x="21" y="31.7" width="90.4" height="79.6"/>
		</defs>
		<clipPath id="SVGID_2_">
			<use xlink:href="#SVGID_43_"  style="overflow:visible;"/>
		</clipPath>
		<path class="st2" d="M111.3,55.7c0-1,0-1.9-0.1-2.9L90.2,31.7L21,83.7l27.1,27.1c2.5,0.3,5,0.5,7.5,0.5
			C86.4,111.3,111.3,86.4,111.3,55.7"/>
	</g>
</g>
<polygon class="st74" points="16.9,69.2 33.1,77.4 55.7,69.1 94.3,69.2 94.3,53.1 16.9,53.1 "/>
<path class="st75" d="M32.1,75.6c-6.8-2.6-12.9-6.4-15.4-13.1v11.1l0,0c-0.5,6.4,5,12.9,15.7,17l3.8-5.8
	C36.1,84.8,44.3,72.9,32.1,75.6"/>
<polygon class="st75" points="94.3,77.3 55.7,74.6 55.7,59.6 94.3,62.3 "/>
<polygon class="st76" points="32.4,90.7 55.7,74.6 55.7,59.6 32.4,75.6 "/>
<path class="st75" d="M32.1,51.2L16.7,40v15l0,0c-0.5,6.4,5,12.9,15.7,17l3.8-5.8C36.1,66.2,44.3,48.5,32.1,51.2"/>
<path class="st77" d="M32.4,57.1l23.3-16.2l38.7,2.8c0-8.4-3.7-14.7-15.9-19.2C61,18,36.6,20,24,29.1C11.5,38,15.3,50.5,32.4,57.1"
	/>
<polygon class="st75" points="94.3,58.7 55.7,56 55.7,40.9 94.3,43.7 "/>
<polygon class="st76" points="32.4,72.1 55.7,56 55.7,40.9 32.4,57.1 "/>
<path class="st74" d="M63.5,39.5c0,4.4-3.5,4.2-7.9,4.2c-4.4,0-7.9,0.1-7.9-4.2c0-4.4,3.5-7.9,7.9-7.9C60,31.6,63.5,35.1,63.5,39.5"
	/>
<path class="st78" d="M60.1,30.8c0,2.5-2,4.5-4.5,4.5c-2.5,0-4.5-2-4.5-4.5c0-2.5,2-4.5,4.5-4.5C58.1,26.2,60.1,28.3,60.1,30.8"/>
</svg>
