<?xml version="1.0" encoding="utf-8"?>
<!-- Generator: Adobe Illustrator 19.2.1, SVG Export Plug-In . SVG Version: 6.00 Build 0)  -->
<svg version="1.1" id="Layer_1" xmlns="http://www.w3.org/2000/svg" xmlns:xlink="http://www.w3.org/1999/xlink" x="0px" y="0px"
	 viewBox="0 0 111.3 111.3" style="enable-background:new 0 0 111.3 111.3;" xml:space="preserve">
<style type="text/css">
	.st0{fill:none;stroke:#FC1037;stroke-width:4;stroke-miterlimit:10;}
	.st1{fill:#EFC167;}
	.st2{clip-path:url(#SVGID_2_);fill:#D6BD88;}
	.st3{fill:#852C42;}
	.st4{fill:#9B5166;}
	.st5{fill:#FFF2BB;}
	.st6{fill:#687C15;}
	.st7{fill:#5E6B13;}
	.st8{fill:#FFF54C;}
	.st9{fill:#F7E597;}
	.st10{fill:#7BAA49;}
	.st11{fill:#96D85B;}
	.st12{clip-path:url(#SVGID_4_);fill:#D6BD88;}
	.st13{fill:#CCE8F3;}
	.st14{fill:#054A5E;}
	.st15{fill:#96D0E2;}
	.st16{fill:#62B8DB;}
	.st17{clip-path:url(#SVGID_6_);fill:#D6BD88;}
	.st18{fill:#1E5C6E;}
	.st19{fill:#FFE669;}
	.st20{fill:#E8F4F9;}
	.st21{fill:none;stroke:#50818F;stroke-width:1.761;stroke-miterlimit:10;}
	.st22{fill:none;stroke:#914255;stroke-width:1.784;stroke-miterlimit:10;}
	.st23{clip-path:url(#SVGID_8_);fill:#D6BD88;}
	.st24{fill:#C3E3ED;}
	.st25{clip-path:url(#SVGID_10_);fill:#D6BD88;}
	.st26{fill:#376E7E;}
	.st27{fill:none;stroke:#EFC167;stroke-width:1.956;stroke-miterlimit:10;}
	.st28{clip-path:url(#SVGID_12_);fill:#D6BD88;}
	.st29{fill:#FFFA5F;}
	.st30{fill:none;stroke:#EFC167;stroke-width:1.118;stroke-miterlimit:10;}
	.st31{fill:#FDFFCA;}
	.st32{fill:#A0D4E9;}
	.st33{clip-path:url(#SVGID_14_);fill:#D6BD88;}
	.st34{fill:#04BBDF;}
	.st35{fill:#B3D335;}
	.st36{opacity:0.3;}
	.st37{clip-path:url(#SVGID_16_);fill:#FFFFFF;}
	.st38{clip-path:url(#SVGID_18_);fill:#D6BD88;}
	.st39{clip-path:url(#SVGID_20_);fill:#D6BD88;}
	.st40{clip-path:url(#SVGID_22_);fill:#D6BD88;}
	.st41{fill:#04BF00;}
	.st42{fill:#9D5668;}
	.st43{clip-path:url(#SVGID_24_);fill:#D6BD88;}
	.st44{fill:#F5DAA4;}
	.st45{clip-path:url(#SVGID_26_);fill:#D6BD88;}
	.st46{fill:#DAE8ED;}
	.st47{fill:#FFFFFF;}
	.st48{fill:none;stroke:#50818F;stroke-width:2.932;stroke-miterlimit:10;}
	.st49{fill:none;stroke:#50818F;stroke-width:2.153;stroke-miterlimit:10;}
	.st50{fill:#FF5200;}
	.st51{clip-path:url(#SVGID_28_);fill:#D6BD88;}
	.st52{fill:#FF6200;}
	.st53{clip-path:url(#SVGID_30_);fill:#D6BD88;}
	.st54{clip-path:url(#SVGID_32_);fill:#D6BD88;}
	.st55{fill:#EED9B5;}
	.st56{clip-path:url(#SVGID_34_);fill:#FFFFFF;}
	.st57{clip-path:url(#SVGID_34_);fill:#F5DAA4;}
	.st58{clip-path:url(#SVGID_34_);fill:#852C42;}
	.st59{clip-path:url(#SVGID_36_);fill:#D6BD88;}
	.st60{fill:#5ED65B;}
	.st61{fill:#FF4E22;}
	.st62{clip-path:url(#SVGID_38_);fill:#D6BD88;}
	.st63{fill:#FFC9BF;}
	.st64{fill:none;stroke:#FFC9BF;stroke-width:2.527;stroke-linecap:round;stroke-linejoin:round;stroke-miterlimit:10;}
	.st65{fill:none;stroke:#FFF1EB;stroke-width:2.527;stroke-miterlimit:10;}
	.st66{clip-path:url(#SVGID_40_);fill:#D6BD88;}
	.st67{fill:#FFEC9C;}
	.st68{fill:none;stroke:#FFFAE3;stroke-width:3;stroke-linecap:round;stroke-miterlimit:10;}
	.st69{fill:none;stroke:#FFFAE3;stroke-width:3;stroke-miterlimit:10;}
	.st70{fill:none;}
	.st71{clip-path:url(#SVGID_42_);fill:#D6BD88;}
	.st72{fill:#FFFAE3;}
	.st73{clip-path:url(#SVGID_44_);fill:#D6BD88;}
	.st74{fill:#FFFFD9;}
	.st75{fill:#997A59;}
	.st76{fill:#683300;}
	.st77{fill:#774E22;}
	.st78{fill:#FF0014;}
	.st79{clip-path:url(#SVGID_46_);fill:#D6BD88;}
	.st80{fill:#00B3DF;}
	.st81{fill:#1FD2FF;}
	.st82{fill:#1FE8FF;}
	.st83{fill:#344756;}
	.st84{fill:#F3C149;}
	.st85{fill:#FFBE4B;}
</style>
<path class="st1" d="M111.3,55.7c0,30.7-24.9,55.7-55.7,55.7C24.9,111.3,0,86.4,0,55.7C0,24.9,24.9,0,55.7,0
	C86.4,0,111.3,24.9,111.3,55.7"/>
<g>
	<g>
		<defs>
			<rect id="SVGID_11_" x="46.8" y="28.9" width="63.6" height="81.1"/>
		</defs>
		<clipPath id="SVGID_2_">
			<use xlink:href="#SVGID_11_"  style="overflow:visible;"/>
		</clipPath>
		<path class="st2" d="M46.8,88.5l21.4,21.4c21.4-4.9,38-22.1,42.2-43.8L73,28.9L46.8,88.5z"/>
	</g>
</g>
<path class="st29" d="M55.7,77.8c6.9,0,9.8,0.1,9.8-5c0-9,13.1-16.7,13.1-28.9c0-12.6-10.3-22.9-22.9-22.9
	c-12.6,0-22.9,10.3-22.9,22.9c0,12.2,13.1,19.9,13.1,28.9C45.9,77.9,48.8,77.8,55.7,77.8"/>
<rect x="54.8" y="64.4" class="st1" width="1.1" height="11.6"/>
<polygon class="st30" points="61.1,49.7 55.4,65.2 49.7,49.7 "/>
<path class="st31" d="M46.7,75c1.4-8.9-10.3-18.6-8.4-30.6c2-12.5,13.8-21,26.2-19c2.7,0.4,5.2,1.3,7.4,2.6
	c-4.2-4.2-9.9-6.9-16.4-6.9C43,21.1,32.8,31.3,32.8,44c0,12.2,13.1,19.9,13.1,28.9c0,1.4,0.2,2.5,0.7,3.2
	C46.6,75.7,46.7,75.3,46.7,75"/>
<path class="st14" d="M50.8,84.3v6c1.5,1.7,3.1,2.6,4.9,2.6c1.7,0,3.4-0.9,4.9-2.6v-6c-1.5,1.7-3.1,2.6-4.9,2.6
	C53.9,86.9,52.3,86,50.8,84.3"/>
<path class="st32" d="M45.9,74.1l0.8,14.4c2.7,0.7,5.7,1.1,8.9,1.1c3.2,0,6.2-0.4,8.9-1.1l0.8-14.4c-3,0.8-6.3,1.3-9.7,1.3
	C52.2,75.4,48.9,74.9,45.9,74.1"/>
</svg>
