<?xml version="1.0" encoding="utf-8"?>
<!-- Generator: Adobe Illustrator 19.2.1, SVG Export Plug-In . SVG Version: 6.00 Build 0)  -->
<svg version="1.1" id="Layer_1" xmlns="http://www.w3.org/2000/svg" xmlns:xlink="http://www.w3.org/1999/xlink" x="0px" y="0px"
	 viewBox="0 0 111.3 111.3" style="enable-background:new 0 0 111.3 111.3;" xml:space="preserve">
<style type="text/css">
	.st0{fill:none;stroke:#FC1037;stroke-width:4;stroke-miterlimit:10;}
	.st1{fill:#EFC167;}
	.st2{clip-path:url(#SVGID_2_);fill:#D6BD88;}
	.st3{fill:#852C42;}
	.st4{fill:#9B5166;}
	.st5{fill:#FFF2BB;}
	.st6{fill:#687C15;}
	.st7{fill:#5E6B13;}
	.st8{fill:#FFF54C;}
	.st9{fill:#F7E597;}
	.st10{fill:#7BAA49;}
	.st11{fill:#96D85B;}
	.st12{clip-path:url(#SVGID_4_);fill:#D6BD88;}
	.st13{fill:#CCE8F3;}
	.st14{fill:#054A5E;}
	.st15{fill:#96D0E2;}
	.st16{fill:#62B8DB;}
	.st17{clip-path:url(#SVGID_6_);fill:#D6BD88;}
	.st18{fill:#1E5C6E;}
	.st19{fill:#FFE669;}
	.st20{fill:#E8F4F9;}
	.st21{fill:none;stroke:#50818F;stroke-width:1.761;stroke-miterlimit:10;}
	.st22{fill:none;stroke:#914255;stroke-width:1.784;stroke-miterlimit:10;}
	.st23{clip-path:url(#SVGID_8_);fill:#D6BD88;}
	.st24{fill:#C3E3ED;}
	.st25{clip-path:url(#SVGID_10_);fill:#D6BD88;}
	.st26{fill:#376E7E;}
	.st27{fill:none;stroke:#EFC167;stroke-width:1.956;stroke-miterlimit:10;}
	.st28{clip-path:url(#SVGID_12_);fill:#D6BD88;}
	.st29{fill:#FFFA5F;}
	.st30{fill:none;stroke:#EFC167;stroke-width:1.118;stroke-miterlimit:10;}
	.st31{fill:#FDFFCA;}
	.st32{fill:#A0D4E9;}
	.st33{clip-path:url(#SVGID_14_);fill:#D6BD88;}
	.st34{fill:#04BBDF;}
	.st35{fill:#B3D335;}
	.st36{opacity:0.3;}
	.st37{clip-path:url(#SVGID_16_);fill:#FFFFFF;}
	.st38{clip-path:url(#SVGID_18_);fill:#D6BD88;}
	.st39{clip-path:url(#SVGID_20_);fill:#D6BD88;}
	.st40{clip-path:url(#SVGID_22_);fill:#D6BD88;}
	.st41{fill:#04BF00;}
	.st42{fill:#9D5668;}
	.st43{clip-path:url(#SVGID_24_);fill:#D6BD88;}
	.st44{fill:#F5DAA4;}
	.st45{clip-path:url(#SVGID_26_);fill:#D6BD88;}
	.st46{fill:#DAE8ED;}
	.st47{fill:#FFFFFF;}
	.st48{fill:none;stroke:#50818F;stroke-width:2.932;stroke-miterlimit:10;}
	.st49{fill:none;stroke:#50818F;stroke-width:2.153;stroke-miterlimit:10;}
	.st50{fill:#FF5200;}
	.st51{clip-path:url(#SVGID_28_);fill:#D6BD88;}
	.st52{fill:#FF6200;}
	.st53{clip-path:url(#SVGID_30_);fill:#D6BD88;}
	.st54{clip-path:url(#SVGID_32_);fill:#D6BD88;}
	.st55{fill:#EED9B5;}
	.st56{clip-path:url(#SVGID_34_);fill:#FFFFFF;}
	.st57{clip-path:url(#SVGID_34_);fill:#F5DAA4;}
	.st58{clip-path:url(#SVGID_34_);fill:#852C42;}
	.st59{clip-path:url(#SVGID_36_);fill:#D6BD88;}
	.st60{fill:#5ED65B;}
	.st61{fill:#FF4E22;}
	.st62{clip-path:url(#SVGID_38_);fill:#D6BD88;}
	.st63{fill:#FFC9BF;}
	.st64{fill:none;stroke:#FFC9BF;stroke-width:2.527;stroke-linecap:round;stroke-linejoin:round;stroke-miterlimit:10;}
	.st65{fill:none;stroke:#FFF1EB;stroke-width:2.527;stroke-miterlimit:10;}
	.st66{clip-path:url(#SVGID_40_);fill:#D6BD88;}
	.st67{fill:#FFEC9C;}
	.st68{fill:none;stroke:#FFFAE3;stroke-width:3;stroke-linecap:round;stroke-miterlimit:10;}
	.st69{fill:none;stroke:#FFFAE3;stroke-width:3;stroke-miterlimit:10;}
	.st70{fill:none;}
	.st71{clip-path:url(#SVGID_42_);fill:#D6BD88;}
	.st72{fill:#FFFAE3;}
	.st73{clip-path:url(#SVGID_44_);fill:#D6BD88;}
	.st74{fill:#FFFFD9;}
	.st75{fill:#997A59;}
	.st76{fill:#683300;}
	.st77{fill:#774E22;}
	.st78{fill:#FF0014;}
	.st79{clip-path:url(#SVGID_46_);fill:#D6BD88;}
	.st80{fill:#00B3DF;}
	.st81{fill:#1FD2FF;}
	.st82{fill:#1FE8FF;}
	.st83{fill:#344756;}
	.st84{fill:#F3C149;}
	.st85{fill:#FFBE4B;}
</style>
<path class="st1" d="M111.3,55.7c0,30.7-24.9,55.7-55.7,55.7C24.9,111.3,0,86.4,0,55.7C0,24.9,24.9,0,55.7,0
	C86.4,0,111.3,24.9,111.3,55.7"/>
<g>
	<g>
		<defs>
			<rect id="SVGID_45_" x="6.6" y="45.2" width="104.7" height="66.2"/>
		</defs>
		<clipPath id="SVGID_2_">
			<use xlink:href="#SVGID_45_"  style="overflow:visible;"/>
		</clipPath>
		<path class="st2" d="M6.6,61.8l49.6,49.6c30.5-0.3,55.2-25.1,55.2-55.7c0-1.4-0.1-2.7-0.2-4l-6.5-6.5L84.5,58.9L6.6,61.8z"/>
	</g>
</g>
<path class="st80" d="M100.7,59.1c3.6-6.9,4-13.9,4-13.9s-6.7,0.3-13.4,3.7c-2.4,1.2-4.8,2.8-6.9,4.9c-0.3,0.3-0.5,0.6-0.8,0.8
	C77.3,50.3,66.4,44,53.6,42.2c1.6-3.8,2.1-6.7,2.1-6.7s-6.7-0.5-13.8,2c-2.5,0.9-5.1,2.2-7.4,4c-0.9,0.7-1.7,1.4-2.4,2.1
	c-11.5,3.1-20.8,9.2-25.5,12.8c0.6,0.7,1,1.7,1,2.7c0,1-0.4,2-1,2.7c5.3,4,16.4,11.2,29.9,13.8c0.9,1,1.8,1.9,2.7,2.7
	c6,5.5,12.9,7.8,12.9,7.8s1-4.3,0.7-10c3.3-0.4,6.5-1.1,9.5-2c4.8,2.2,9.4,2.5,9.4,2.5s-0.1-2.4-1.1-5.6c5.3-2.4,9.8-5.1,13-7.4
	c0.3,0.3,0.5,0.6,0.8,0.8c2.1,2.1,4.5,3.7,6.9,4.9c6.7,3.4,13.4,3.7,13.4,3.7S104.3,66,100.7,59.1"/>
<path class="st81" d="M100.7,59.1c3.6-6.9,4-13.9,4-13.9s-6.7,0.3-13.4,3.7c-2.4,1.2-4.8,2.8-6.9,4.9c-0.3,0.3-0.5,0.6-0.8,0.8
	C77.3,50.3,66.4,44,53.6,42.2c1.6-3.8,2.1-6.7,2.1-6.7s-6.7-0.5-13.8,2c-2.5,0.9-5.1,2.2-7.4,4c-0.9,0.7-1.7,1.4-2.4,2.1
	c-11.5,3.1-20.8,9.2-25.5,12.8c0.6,0.7,1,1.7,1,2.7"/>
<path class="st82" d="M28.6,44.7c-9.9,3.3-17.8,8.5-22,11.7c0.6,0.7,1,1.7,1,2.7c0,1-0.4,2-1,2.7c4,3,11.4,8,20.7,11.3
	c3.8-4,7.3-9.2,7.3-14.9C34.6,53.1,31.9,48.5,28.6,44.7"/>
<path class="st47" d="M27.9,57.1c0,2.9-2.4,5.3-5.3,5.3c-2.9,0-5.3-2.4-5.3-5.3c0-2.9,2.4-5.3,5.3-5.3
	C25.5,51.8,27.9,54.2,27.9,57.1"/>
<path class="st14" d="M22.5,57.1l-1-3.5c0.3-0.1,0.7-0.1,1-0.1c2,0,3.6,1.6,3.6,3.6c0,2-1.6,3.6-3.6,3.6c-2,0-3.6-1.6-3.6-3.6
	c0-0.3,0.1-0.7,0.1-1L22.5,57.1z"/>
</svg>
